<svg xmlns="http://www.w3.org/2000/svg" xmlns:xlink="http://www.w3.org/1999/xlink" viewBox="0 0 502.76 493.79"><defs><style>.cls-1,.cls-10,.cls-11,.cls-12,.cls-13,.cls-14,.cls-15,.cls-16,.cls-17,.cls-4,.cls-5,.cls-6,.cls-7,.cls-8,.cls-9{fill:none;}.cls-2{fill:#13dace;}.cls-3{clip-path:url(#clip-path);}.cls-10,.cls-11,.cls-12,.cls-13,.cls-14,.cls-15,.cls-16,.cls-17,.cls-4,.cls-5,.cls-6,.cls-7,.cls-8,.cls-9{stroke:#fff;stroke-miterlimit:10;}.cls-5{stroke-dasharray:2.7 4.51 2.7 2.7;}.cls-6{stroke-dasharray:3.27 5.45 3.27 3.27;}.cls-7{stroke-dasharray:1.57 2.62 1.57 1.57;}.cls-8{stroke-dasharray:3.27 5.45 3.27 3.27;}.cls-9{stroke-dasharray:1.7 2.84 1.7 1.7;}.cls-10{stroke-dasharray:2.84 1.7 1.7 2.84 1.7 1.7;}.cls-11{stroke-dasharray:2.8 4.67 2.8 2.8;}.cls-12{stroke-dasharray:4.67 2.8 2.8 4.67 2.8 2.8;}.cls-13{stroke-dasharray:1.71 2.84 1.71 1.71;}.cls-14{stroke-dasharray:2.84 1.71 1.71 2.84 1.71 1.71;}.cls-15{stroke-dasharray:0.13 0.21 0.13 0.13;}.cls-16{stroke-dasharray:2.35 3.91 2.35 2.35;}.cls-17{stroke-dasharray:3.91 2.35 2.35 3.91 2.35 2.35;}.cls-18{fill:#fff;}.cls-19{clip-path:url(#clip-path-3);}.cls-20{fill:#cadff5;}.cls-21{fill:#00837e;}.cls-22{fill:#7ec6b3;}.cls-23{opacity:0.5;}.cls-24{clip-path:url(#clip-path-5);}.cls-25{fill:#707070;}.cls-26{fill:#01305a;}.cls-27{fill:#001336;}.cls-28{fill:#e8505b;}.cls-29{fill:#ededed;}.cls-30{fill:#015288;}.cls-31{fill:#292640;}.cls-32{fill:#fb9e82;}.cls-33{fill:#fc7972;}.cls-34{fill:#fdbeab;}.cls-35{fill:#375bc7;}.cls-36{fill:#719187;}.cls-37{fill:#6c9e90;}.cls-38{fill:#d64e5a;}.cls-39{fill:#553935;}.cls-40{fill:#e9575d;}.cls-41{fill:#d04455;}.cls-42{fill:#f3868f;}.cls-43{fill:#3b73a9;}</style><clipPath id="clip-path"><rect class="cls-1" x="-569.45" y="-3.1" width="1028.45" height="632.9"></rect></clipPath><clipPath id="clip-path-3"><rect class="cls-1" width="500" height="500"></rect></clipPath><clipPath id="clip-path-5"><rect class="cls-2" x="293.46" y="150.52" width="33.1" height="12.23"></rect></clipPath></defs><g id="OBJECTS"><line class="cls-4" x1="23.26" y1="153.88" x2="24.89" y2="155.78"></line><line class="cls-5" x1="26.65" y1="157.83" x2="33.99" y2="166.37"></line><polyline class="cls-4" points="34.87 167.4 36.5 169.29 38.81 168.34"></polyline><line class="cls-6" x1="41.83" y1="167.08" x2="54.43" y2="161.87"></line><polyline class="cls-4" points="55.94 161.25 58.25 160.29 60.41 161.55"></polyline><line class="cls-7" x1="61.76" y1="162.34" x2="67.41" y2="165.64"></line><polyline class="cls-4" points="68.09 166.03 70.25 167.29 71.55 165.16"></polyline><line class="cls-8" x1="73.26" y1="162.37" x2="80.36" y2="150.74"></line><polyline class="cls-4" points="81.21 149.35 82.52 147.22 84.98 147.61"></polyline><line class="cls-9" x1="86.67" y1="147.88" x2="93.67" y2="149"></line><line class="cls-10" x1="94.51" y1="149.14" x2="106" y2="150.98"></line><polyline class="cls-4" points="106.84 151.12 109.31 151.51 109.37 149.01"></polyline><line class="cls-11" x1="109.44" y1="146.21" x2="109.71" y2="134.53"></line><line class="cls-12" x1="109.74" y1="133.13" x2="110.19" y2="113.98"></line><polyline class="cls-4" points="110.22 112.58 110.28 110.08 112.33 108.65"></polyline><line class="cls-13" x1="113.73" y1="107.68" x2="119.56" y2="103.61"></line><polyline class="cls-14" points="120.26 103.13 124.08 100.46 129.38 95.9"></polyline><polyline class="cls-4" points="130.02 95.34 131.92 93.71 134.22 94.69"></polyline><line class="cls-15" x1="134.33" y1="94.74" x2="134.81" y2="94.95"></line><polyline class="cls-4" points="134.87 94.97 137.17 95.96 138.15 93.66"></polyline><line class="cls-16" x1="139.07" y1="91.5" x2="142.92" y2="82.5"></line><polyline class="cls-17" points="143.38 81.42 144.51 78.78 152.26 68.13"></polyline><line class="cls-4" x1="152.95" y1="67.18" x2="154.42" y2="65.16"></line><polygon class="cls-18" points="155.31 67.65 158.33 59.79 151.79 65.08 155.31 67.65"></polygon><g class="cls-19"><g class="cls-19"><path class="cls-20" d="M221.92,182c-15.13-54.89-83.32-72.57-122.4-31.55q-.84.89-1.68,1.8c-56,60.9-29.56,211,87.36,249s238.54-31.43,245.37-93.52-47.11-81.61-130.82-64.24c-47.3,9.81-68.41-27.34-77.83-61.51"></path><path class="cls-21" d="M74.89,311.77c-9.48-12.7-23.77-10.16-26.92,5.1-1,5-.81,11.34,1.74,19.17,9.72,29.82,29.44,38.07,39.47,18.88,6.19-11.85-4.9-30.56-14.29-43.15"></path><path class="cls-22" d="M56.31,218.89c-1.65,7.5-9.49,10-14.82,4.49a14.81,14.81,0,0,1-3.83-8.25c-2.43-14.55,5.49-22.73,15.26-17.34,6,3.33,5,13.67,3.39,21.1"></path><path class="cls-20" d="M322,128.28a4.54,4.54,0,0,1-4.51,4.52H221.06a4.53,4.53,0,0,1-4.51-4.52,4.54,4.54,0,0,1,4.51-4.51h4.56a11.76,11.76,0,0,1,19.14-3.64,16.34,16.34,0,0,1,18.82-7.36,18.67,18.67,0,0,1,34.49,3.77,11.77,11.77,0,0,1,16.56,7.23h2.9a4.52,4.52,0,0,1,4.51,4.51"></path><path class="cls-20" d="M379.66,207.88a4.23,4.23,0,0,1-4.23,4.23H284.91a4.24,4.24,0,0,1-4.23-4.23,4.25,4.25,0,0,1,4.23-4.23h4.28a11,11,0,0,1,18-3.42,15.29,15.29,0,0,1,13.21-7.56,15.55,15.55,0,0,1,4.45.65,17.52,17.52,0,0,1,32.36,3.54,11,11,0,0,1,15.54,6.79h2.72a4.24,4.24,0,0,1,4.23,4.23"></path><path class="cls-21" d="M386.17,143.16a6.37,6.37,0,1,1,6.36-6.36,6.38,6.38,0,0,1-6.36,6.36m0-10.73a4.37,4.37,0,1,0,4.36,4.37,4.37,4.37,0,0,0-4.36-4.37"></path><path class="cls-22" d="M425.07,161.48a6.37,6.37,0,1,1,6.36-6.37,6.37,6.37,0,0,1-6.36,6.37m0-10.73a4.37,4.37,0,1,0,4.36,4.36,4.37,4.37,0,0,0-4.36-4.36"></path><path class="cls-21" d="M432.93,182.15a1,1,0,0,1-1-1v-4.4a1,1,0,0,1,2,0v4.4a1,1,0,0,1-1,1"></path><path class="cls-21" d="M432.93,189.85a1,1,0,0,1-1-1v-4.4a1,1,0,0,1,2,0v4.4a1,1,0,0,1-1,1"></path><path class="cls-21" d="M439.11,183.8h-4a1,1,0,0,1,0-2h4a1,1,0,0,1,0,2"></path><path class="cls-21" d="M430.7,183.8h-3.95a1,1,0,0,1,0-2h3.95a1,1,0,0,1,0,2"></path><path class="cls-21" d="M397.8,157.49a1,1,0,0,1-1-1v-4.4a1,1,0,1,1,2,0v4.4a1,1,0,0,1-1,1"></path><path class="cls-21" d="M397.8,165.19a1,1,0,0,1-1-1v-4.4a1,1,0,0,1,2,0v4.4a1,1,0,0,1-1,1"></path><path class="cls-21" d="M404,159.14h-4a1,1,0,0,1,0-2h4a1,1,0,0,1,0,2"></path><path class="cls-21" d="M395.58,159.14h-4a1,1,0,0,1,0-2h4a1,1,0,0,1,0,2"></path><path class="cls-21" d="M98.1,124.53a6.37,6.37,0,1,1,6.37,6.36,6.37,6.37,0,0,1-6.37-6.36m2,0a4.37,4.37,0,1,0,4.37-4.37,4.37,4.37,0,0,0-4.37,4.37"></path><path class="cls-21" d="M72.55,148.78a6.37,6.37,0,1,1,6.37,6.36,6.37,6.37,0,0,1-6.37-6.36m2,0a4.37,4.37,0,1,0,4.37-4.37,4.37,4.37,0,0,0-4.37,4.37"></path><path class="cls-22" d="M59.33,157.71a1,1,0,0,0,1-1v-4.4a1,1,0,0,0-2,0v4.4a1,1,0,0,0,1,1"></path><path class="cls-22" d="M59.33,165.41a1,1,0,0,0,1-1V160a1,1,0,0,0-2,0v4.4a1,1,0,0,0,1,1"></path><path class="cls-22" d="M53.15,159.36h4a1,1,0,0,0,0-2h-4a1,1,0,0,0,0,2"></path><path class="cls-22" d="M61.55,159.36h4a1,1,0,0,0,0-2h-4a1,1,0,0,0,0,2"></path><path class="cls-22" d="M82.32,123.88a1,1,0,0,0,1-1v-4.4a1,1,0,0,0-2,0v4.4a1,1,0,0,0,1,1"></path><path class="cls-22" d="M82.32,131.58a1,1,0,0,0,1-1v-4.4a1,1,0,0,0-2,0v4.4a1,1,0,0,0,1,1"></path><path class="cls-22" d="M76.15,125.53H80.1a1,1,0,0,0,0-2H76.15a1,1,0,0,0,0,2"></path><path class="cls-22" d="M84.55,125.53h4a1,1,0,0,0,0-2h-4a1,1,0,1,0,0,2"></path><path class="cls-22" d="M332.39,147.74v18.41a4.41,4.41,0,0,1-4.41,4.41H294.55l-10.09,3.62a1.28,1.28,0,0,1-1.63-1.67l3.82-9.86V147.74a4.41,4.41,0,0,1,4.41-4.41H328a4.41,4.41,0,0,1,4.41,4.41"></path><g class="cls-23"><rect class="cls-2" x="293.46" y="150.52" width="33.1" height="12.23"></rect><g class="cls-24"><path class="cls-21" d="M325.34,153H294.68a1.22,1.22,0,1,1,0-2.43h30.66a1.22,1.22,0,1,1,0,2.43"></path><path class="cls-21" d="M325.34,157.85H294.68a1.22,1.22,0,0,1,0-2.44h30.66a1.22,1.22,0,1,1,0,2.44"></path><path class="cls-21" d="M325.34,162.75H294.68a1.22,1.22,0,0,1,0-2.44h30.66a1.22,1.22,0,1,1,0,2.44"></path></g></g><path class="cls-20" d="M204.83,101.92a.62.62,0,0,0,.33,0c1.22-.32,1.93-.45,1.94-.45a.68.68,0,0,0-.25-1.34s-.75.14-2,.47a.68.68,0,0,0,0,1.32"></path><path class="cls-20" d="M165.37,133.05c-.63,1.15-1.24,2.35-1.81,3.55a.67.67,0,0,1-.78.37l-.13,0a.68.68,0,0,1-.32-.91c.58-1.23,1.2-2.45,1.85-3.63a.68.68,0,0,1,.92-.27.69.69,0,0,1,.27.93"></path><path class="cls-20" d="M162,140.26c-.49,1.22-1,2.48-1.38,3.75a.69.69,0,0,1-.81.44l-.05,0a.67.67,0,0,1-.43-.86c.44-1.29.91-2.57,1.41-3.82a.68.68,0,0,1,.88-.37.67.67,0,0,1,.38.88"></path><path class="cls-20" d="M156.2,160.16a.67.67,0,0,1-.5-.75c.17-1.35.37-2.7.61-4a.68.68,0,1,1,1.33.24c-.22,1.29-.42,2.62-.6,4a.67.67,0,0,1-.76.59h-.08"></path><path class="cls-20" d="M158.93,147a.67.67,0,0,1,.47.83q-.26.9-.48,1.8c-.17.68-.34,1.39-.49,2.08a.69.69,0,0,1-.82.52h0a.68.68,0,0,1-.5-.81c.16-.7.33-1.42.51-2.11s.31-1.22.48-1.83a.68.68,0,0,1,.82-.48h0"></path><path class="cls-20" d="M167.4,129.61a.69.69,0,0,1-.75.29.52.52,0,0,1-.19-.08.68.68,0,0,1-.21-.94c.72-1.14,1.49-2.28,2.28-3.37a.68.68,0,0,1,1.1.8c-.77,1.07-1.53,2.18-2.23,3.3"></path><path class="cls-20" d="M201.35,103.07c-1.24.43-2.49.9-3.74,1.41a.61.61,0,0,1-.42,0,.67.67,0,0,1-.09-1.28c1.26-.52,2.55-1,3.81-1.44a.69.69,0,0,1,.87.42.67.67,0,0,1-.43.86"></path><path class="cls-20" d="M190.42,108a.68.68,0,0,1-.5.07.69.69,0,0,1-.42-.33.66.66,0,0,1,.26-.92c1.18-.66,2.4-1.3,3.61-1.89a.68.68,0,0,1,.6,1.23c-1.2.57-2.39,1.2-3.55,1.84"></path><path class="cls-20" d="M177.54,117.34a.69.69,0,0,1-.63.17.67.67,0,0,1-.33-.2.68.68,0,0,1,0-1c1-.92,2-1.83,3.06-2.69a.68.68,0,1,1,.87,1c-1,.84-2,1.73-3,2.63"></path><path class="cls-20" d="M183.69,112.26a.64.64,0,0,1-.56.11.68.68,0,0,1-.24-1.21c1.09-.79,2.23-1.56,3.37-2.29A.68.68,0,1,1,187,110c-1.12.72-2.23,1.47-3.3,2.25"></path><path class="cls-20" d="M172.07,123.15a.68.68,0,0,1-.69.23.73.73,0,0,1-.26-.14.67.67,0,0,1-.09-.95c.86-1.05,1.77-2.07,2.69-3.06a.68.68,0,0,1,1,0,.67.67,0,0,1,0,1c-.9,1-1.79,2-2.64,3"></path><polygon class="cls-22" points="205.5 97.32 204.13 86 240.13 91.5 205.5 97.32"></polygon><polygon class="cls-21" points="240.13 91.5 206.87 100.2 206.78 100.23 205.11 102.27 205.5 97.32 240.13 91.5"></polygon><polygon class="cls-21" points="205.11 102.27 208.1 102.23 206.78 100.23 205.11 102.27"></polygon><polygon class="cls-22" points="210.97 99.13 206.78 100.23 213.59 110.55 240.13 91.5 210.97 99.13"></polygon><path class="cls-22" d="M129.08,420.36c-12.75-12.95-38.82-41.51-55.4-73.83C49.28,299,24.81,303.22,20,320c-10.87,38,43.77,79,77.92,100.32Z"></path><path class="cls-25" d="M118.93,420.36c-19.37-15.2-35.73-32.47-47.11-45.72a363.51,363.51,0,0,1-26.31-34.33,1.17,1.17,0,0,0-2,1.28A366,366,0,0,0,70,376.14a348.88,348.88,0,0,0,45.14,44.22Z"></path><path class="cls-22" d="M127,404.58c-5.72-11.42-16.57-35.35-20.6-59.73-6-36.43-23-38.8-29.71-28.75-18.42,27.58,25.72,78.33,39.8,93.35Z"></path><path class="cls-25" d="M123,406.44c-10.75-15.09-18.68-31.46-23.75-43.5a248.72,248.72,0,0,1-10.06-28.13.81.81,0,0,0-1.57.43,252.71,252.71,0,0,0,10.12,28.31c5.08,12.06,13,28.44,23.76,43.58Z"></path><path class="cls-22" d="M377.78,303.49c10.92-12.79,34.61-42.62,48.48-75.52,19.9-47.2,43.59-44.9,49.38-29.18,15,40.66-51.5,91.08-79.23,109.94Z"></path><path class="cls-25" d="M384.34,305.34c19.2-16.79,35.05-36.14,45.71-50.65A345.78,345.78,0,0,0,452.73,220a1.13,1.13,0,0,1,1.53-.44,1.12,1.12,0,0,1,.44,1.52A349.57,349.57,0,0,1,431.89,256c-10.54,14.33-26.1,33.36-45,50.06Z"></path><path class="cls-22" d="M379.5,287.28c4.65-11.33,13.3-35,15.39-58.57,3.13-35.24,19.2-38.73,26.33-29.61,19.58,25-19,76.71-31.33,92.07Z"></path><path class="cls-25" d="M383.46,288.76c9.19-15.19,15.59-31.4,19.57-43.27a238.51,238.51,0,0,0,7.59-27.61.78.78,0,0,1,1.53.3A240.68,240.68,0,0,1,404.51,246c-4,11.89-10.39,28.11-19.57,43.35Z"></path><path class="cls-22" d="M445,340.63c3.42-18.09,10-34.59,17.45-27.78s-4.37,35-22,50.62l-4.73,6.75c12.67-11.61,33.06-18.53,38.6-12s-8.5,9.89-21.79,10.84c-10.12.73-16.58,3.52-19.71,5.26l-22.38,31.88c20.12-18.32,52.32-29.21,61.08-18.84s-13.47,15.69-34.57,17.2c-15.94,1.14-26.16,5.52-31.17,8.29l-4.46,6.35c-1.23-.6-2.45-1.21-3.66-1.82l26.62-37.93a52.42,52.42,0,0,0-2.14-16.27c-3.63-12.83-5.21-27.14,2.79-24.18,6.94,2.57,8.21,18.93,4.18,33.56l9.21-13.11c2.16-4.55,5.25-11,6.72-18.84"></path><path class="cls-21" d="M92.44,195.94c-1.8-15-6.27-28.83-12.75-23.67S81.36,201.13,95,214.86l3.51,5.78c-9.74-10.18-26-17-30.91-11.9s6.4,8.55,17.22,10.06c8.23,1.14,13.36,3.78,15.83,5.37l16.56,27.29C101.7,235.38,76,224.72,68.24,232.72s10.16,13.57,27.33,15.95c13,1.81,21.09,5.94,25,8.48l3.3,5.44q1.55-.63,3.09-1.29l-19.7-32.47a43,43,0,0,1,2.64-13.19c3.67-10.29,5.74-21.9-1-19.92-5.82,1.72-7.74,15-5.26,27.22l-6.81-11.23a62.52,62.52,0,0,1-4.47-15.77"></path><path class="cls-26" d="M243.35,414.51c.18-2.91.34-5.68.49-8.25.62-10.49,1-17.66,1-17.66l-4.11-.18-2.32-.1-27.94-1.25s-.51,8-1.11,19.78c-.12,2.41-.25,5-.38,7.66Z"></path><path class="cls-27" d="M243.52,348.54l4.48.58s-.44,22.38-1.11,55.16a96,96,0,0,1-37.51,1.84c.65-36.76,1.2-61.79,1.2-61.79L241,348.22Z"></path><path class="cls-27" d="M239.28,414.51c.65-11.21,1.18-20.82,1.47-26.09l-2.32-.1c-.29,5.29-.82,14.94-1.47,26.19Z"></path><path class="cls-26" d="M252.36,414.51h34.35c-.13-2.69-.26-5.25-.38-7.66-.6-11.77-1.11-19.78-1.11-19.78l-27.94,1.25-2.32.1-4.11.18s.4,7.17,1,17.66c.15,2.57.31,5.34.49,8.25"></path><path class="cls-27" d="M252,347.7l-4.5.58s.43,22.7,1.11,56a95.55,95.55,0,0,0,37.72,1.86c-.65-37.28-1.21-62.67-1.21-62.67l-30.59,3.94Z"></path><path class="cls-27" d="M258.75,414.51c-.65-11.25-1.18-20.9-1.47-26.19l-2.32.1c.29,5.27.82,14.88,1.47,26.09Z"></path><path class="cls-28" d="M289.19,340.18c0,2.39,0,4.27,0,5.55A222.2,222.2,0,0,1,265.71,349l-.62.06-1,.09h-.26c-1.36.11-2.71.2-4.07.29-2.81.16-6.91.31-9.73.36l-2.18-9.38-2.19,9.38c-1.61,0-4.44-.05-6.05-.1l-1.77-.07-1.59-.07-.72,0-1.34-.07a222,222,0,0,1-29.61-3.75c-.06-2.81-.11-8.52-.12-15.89v-1.23c0-8.13,0-18.11.17-28.38l0-2.44c0-1.1,0-2.21,0-3.32,0-.22,0-.45,0-.67,0-.45,0-.89,0-1.34,0-.65,0-1.3,0-1.94l.09-4.41c.48-20.4,1.43-39.15,3.25-43.91a3.05,3.05,0,0,1,.53-1,6.45,6.45,0,0,1,.7-.65c.34-.27.73-.56,1.17-.85,3-2,8.28-4.35,13.61-6.56l1.86-.77c.1,0,14.48-3.54,14.57-3.58l15,.76c1.81.77,16,4.25,17.78,5l1.53.7c4.09,1.9,7.57,3.79,9.09,5.4,2.19,2.32,3.51,23.15,4.28,45.8,0,.52,0,1,.05,1.57.08,2.39.15,4.8.22,7.21s.12,4.75.18,7.11c.09,3.85.16,7.65.23,11.3,0,.42,0,.83,0,1.24.06,3.56.1,7,.14,10.17,0,.42,0,.83,0,1.24,0,4.79.08,9,.09,12.44h0v1.37"></path><polygon class="cls-29" points="248.56 251.48 257.31 325.33 247.84 343.61 238.12 325.33 247.4 251.5 248.56 251.48"></polygon><polygon class="cls-18" points="253.99 248.54 247.9 258.3 241.63 248.63 247.81 236.82 253.99 248.54"></polygon><path class="cls-30" d="M239.17,227.65s-5.41-.06-7.25,4.3c0,0-.55,13.39,9.71,16.68l6.18-11.81s-7.7-2.38-8.64-9.17"></path><path class="cls-30" d="M255.88,227.65a8.88,8.88,0,0,1,6.47,5s1.88,12.65-8.37,15.94l-6.17-11.81s7.14-2.38,8.07-9.17"></path><path class="cls-22" d="M268.24,292.62h-.89a8.8,8.8,0,0,1-8.8-8.8V272.53H277v11.29a8.8,8.8,0,0,1-8.8,8.8"></path><path class="cls-31" d="M227.1,190.48s.34-8-.74-11.21c-1.91-5.64-1-10,3.23-11.33,4.84-1.54.86-4.9,5.52-6.38s5.8,2.5,8.63,1,3.79-2.6,6.59-3c4.26-.57,4.53,3.48,7.47,2.94,4.88-.9,7.61,2.25,8.6,5.44s.24,4.1,2.5,5c3.35,1.39,2.74,6.92.9,9.25s-1.54,3.25-1.67,6.94-41,1.32-41,1.32"></path><path class="cls-32" d="M266,197.64s3.53-4.71,6.16-.82-1.09,15.39-7.51,12.58Z"></path><path class="cls-33" d="M266.09,205.85a.53.53,0,0,0,.52-.39c1-3.55,4.67-5,4.71-5a.54.54,0,0,0,.31-.7.52.52,0,0,0-.69-.31,9.31,9.31,0,0,0-5.37,5.72.53.53,0,0,0,.37.67.39.39,0,0,0,.15,0"></path><path class="cls-33" d="M269.8,204.06a.51.51,0,0,0,.29-.08.55.55,0,0,0,.17-.75,5,5,0,0,0-2-1.65.55.55,0,0,0-.72.28.55.55,0,0,0,.27.72,3.8,3.8,0,0,1,1.57,1.24.55.55,0,0,0,.46.24"></path><path class="cls-32" d="M229.67,197.64s-3.53-4.71-6.16-.82,1.09,15.39,7.52,12.58Z"></path><path class="cls-33" d="M229.62,205.85a.54.54,0,0,1-.52-.39c-1-3.55-4.67-5-4.71-5a.54.54,0,1,1,.39-1,9.36,9.36,0,0,1,5.37,5.72.54.54,0,0,1-.38.67.39.39,0,0,1-.15,0"></path><path class="cls-33" d="M225.91,204.06a.51.51,0,0,1-.29-.08.54.54,0,0,1-.16-.75,4.85,4.85,0,0,1,2-1.65.54.54,0,0,1,.72.28.55.55,0,0,1-.27.72,3.88,3.88,0,0,0-1.57,1.24.54.54,0,0,1-.46.24"></path><path class="cls-34" d="M239.17,219.15v11.43s3.41,5.82,8,6.22,8.69-5,8.69-5V220Z"></path><path class="cls-32" d="M239.17,219.15v5.07c3.09,3.44,8.58,4.29,16.71,3.09V220Z"></path><path class="cls-34" d="M227.12,189.8a110.43,110.43,0,0,0,1.48,14.44h0a.08.08,0,0,0,0,0h0c.21,1.08.45,2.1.7,3,.16.54.32,1.1.51,1.68,2.71,8.5,9,20.8,24.76,15.17,6.65-2.37,10.11-9.23,11.87-16.67.1-.44.2-.88.28-1.31.06-.28.12-.55.17-.82l.08-.4c0-.07,0-.11,0-.14v0a81.34,81.34,0,0,0,1.12-15.64A11.93,11.93,0,0,0,262.07,179c-9.93-5.64-20.43-3.54-27.33-.88a11.87,11.87,0,0,0-7.62,11.67"></path><path class="cls-31" d="M228.6,204.24h0a.08.08,0,0,0,0,0h0c.1.37.66,2.41,1.21,4.7,2.71,8.5,9,20.8,24.76,15.17,6.65-2.37,10.11-9.23,11.87-16.67.1-.44.2-.88.28-1.31.06-.28.12-.55.17-.82l.08-.4a1.15,1.15,0,0,0,0-.14v0l-2.32-.47a17.9,17.9,0,0,1-2.63,6.11c-2-4.7-11.92-1.58-11.92-1.58l0,0a6.21,6.21,0,0,1-1.86.28,6.29,6.29,0,0,1-1.91-.3s-9.84-3.26-11.87,1.23a63.61,63.61,0,0,1-3.43-6l-2.42.18ZM248.21,211c11.26-1.52,9.49,4.54,9.49,4.54a19.27,19.27,0,0,1-3.16,2.41,12.93,12.93,0,0,1-6.64,1.8c-1.72-.07-2.2.28-6.57-2.08A10.81,10.81,0,0,1,239,215.9h0c-.19-1.19-2.09-6.85,9.2-4.91"></path><path class="cls-26" d="M238,198.07c0,1.22.63,2.2,1.41,2.2s1.4-1,1.4-2.2-.63-2.21-1.4-2.21-1.41,1-1.41,2.21"></path><path class="cls-26" d="M255.56,198.07c0,1.22.63,2.2,1.4,2.2s1.41-1,1.41-2.2-.63-2.21-1.41-2.21-1.4,1-1.4,2.21"></path><path class="cls-26" d="M234.41,190.62s5.8-2.3,10.27-.37l-.45,2.49s-6.56-.56-9.86.78a4.25,4.25,0,0,1,0-2.9"></path><path class="cls-26" d="M262,190.63s-5.84-2.31-10.35-.37l.45,2.51s6.61-.56,9.94.79a4.34,4.34,0,0,0,0-2.93"></path><path class="cls-32" d="M247.67,207.94a6,6,0,0,1-2-.41.55.55,0,1,1,.41-1,3.29,3.29,0,0,0,2.18.21.61.61,0,0,0,.27-.51c.19-1.9-.33-8.25-.33-8.32a.54.54,0,0,1,.5-.58.53.53,0,0,1,.58.49,82.75,82.75,0,0,1,.33,8.52,1.67,1.67,0,0,1-.79,1.33,2.29,2.29,0,0,1-1.18.28"></path><path class="cls-18" d="M254.59,212.08c-.41,2.07-1.78,5.89-6.4,5.89s-5.92-3.49-6.37-5.89Z"></path><path class="cls-31" d="M227.12,189.8a110.61,110.61,0,0,0,1.48,14.44l2.43-.18s-.59-3.75-.86-6.19-.74-7,1.35-7.58.86-5.78,3.75-8,9.37-2.89,13.64-.26,9.08-.2,11,.26,4.64,3.16,3.92,5.7,1.45,4.07,2,6.69-1.15,9.68-1.15,9.68l2.32.47a81.34,81.34,0,0,0,1.12-15.64A11.91,11.91,0,0,0,262.07,179c-9.94-5.64-20.43-3.54-27.33-.88a11.88,11.88,0,0,0-7.62,11.67"></path><path class="cls-28" d="M211.73,239.56s-14.28,9.53-23.46,12.36l6.14,25.76s.85-.35,11.27-4.78Z"></path><path class="cls-28" d="M281.75,240.89s27.3,14,36.47,16.83c-3.51,6.33-5.75,12.21-8.74,20.7A206.86,206.86,0,0,1,286,270.53Z"></path><path class="cls-35" d="M392.67,414.68c-.51-9.56-.91-15.8-.91-15.8l-28,1.24-2.33.11-4.12.18s.31,5.65.82,14.27Z"></path><path class="cls-26" d="M392.67,414.68c-.51-9.56-.91-15.8-.91-15.8l-28,1.24-2.33.11-4.12.18s.31,5.65.82,14.27Z"></path><path class="cls-27" d="M364.55,414.68c-.34-6.12-.62-11.21-.81-14.55l-2.32.1c.18,3.33.46,8.37.81,14.45Z"></path><path class="cls-26" d="M349.3,414.68c.5-8.62.82-14.27.82-14.27l-4.48-.2-2.32-.1-27.67-1.23s-.3,4.79-.72,12.4c-.06,1.07-.12,2.21-.18,3.4Z"></path><path class="cls-27" d="M344.84,414.68c.34-6.09.62-11.14.8-14.47l-2.32-.1c-.18,3.35-.46,8.44-.81,14.57Z"></path><path class="cls-31" d="M331.81,194.94c0,12.63,7.78,21.33,20.4,21.33s21.43-9.36,21.43-22a26.94,26.94,0,0,0-1.66-9.62c-.06-.17-.13-.34-.2-.5-.13-.33-.27-.66-.42-1-.22-.49-.47-1-.72-1.43-3.29-5.91-9.19-9.68-17.1-9.68-15.15,0-21.73,10.22-21.73,22.85"></path><path class="cls-31" d="M339.49,175.46a13.25,13.25,0,1,0,13.24-13.24,13.24,13.24,0,0,0-13.24,13.24"></path><path class="cls-32" d="M334.65,200.38s-3.51-4.68-6.12-.81,1.08,15.29,7.47,12.5Z"></path><path class="cls-33" d="M334.6,208.54a.56.56,0,0,1-.52-.39,8.31,8.31,0,0,0-4.68-5,.56.56,0,0,1-.31-.7.54.54,0,0,1,.7-.31,9.26,9.26,0,0,1,5.33,5.68.54.54,0,0,1-.37.67l-.15,0"></path><path class="cls-33" d="M330.92,206.76a.52.52,0,0,1-.3-.08.55.55,0,0,1-.16-.75,5,5,0,0,1,2-1.63.54.54,0,0,1,.44,1,3.81,3.81,0,0,0-1.56,1.24.53.53,0,0,1-.45.24"></path><path class="cls-32" d="M370.8,200.38s3.51-4.68,6.12-.81-1.08,15.29-7.47,12.5Z"></path><path class="cls-33" d="M370.85,208.54a.56.56,0,0,0,.52-.39,8.31,8.31,0,0,1,4.68-5,.54.54,0,0,0,.31-.7.53.53,0,0,0-.69-.31,9.26,9.26,0,0,0-5.34,5.68.55.55,0,0,0,.37.67l.15,0"></path><path class="cls-33" d="M374.54,206.76a.51.51,0,0,0,.29-.08.55.55,0,0,0,.16-.75,4.91,4.91,0,0,0-2-1.63.55.55,0,0,0-.72.27.54.54,0,0,0,.27.71,3.81,3.81,0,0,1,1.56,1.24.55.55,0,0,0,.46.24"></path><path class="cls-34" d="M361.36,221.76v11.36s-3.39,5.79-8,6.18-8.64-5-8.64-5V222.56Z"></path><path class="cls-32" d="M361.36,221.76v5c-3.07,3.41-8.53,4.27-16.61,3.07v-7.31Z"></path><path class="cls-34" d="M332.58,195.48c0,.2,0,.41,0,.63,0,.55,0,1.11.06,1.69,0,.29,0,.58,0,.88s0,.59.06.89v.1l.06.8a67.84,67.84,0,0,0,.86,6.87s0,.11,0,.16c.07.37.15.75.22,1.13,1.63,8,5.07,15.6,12.13,18.12,16.74,6,22.72-8.38,25.12-16.75.21-.76.41-1.59.59-2.47,0-.2.08-.39.11-.6l0-.15a110.2,110.2,0,0,0,1.45-14.07v-.13A11.81,11.81,0,0,0,365.77,181c-6.87-2.64-17.3-4.73-27.17.87a11.86,11.86,0,0,0-6,10.09c0,1.07,0,2.26,0,3.53"></path><path class="cls-31" d="M333.67,207.34s0,.11,0,.16c1.53,8.37,5,16.61,12.35,19.25,16.74,6,22.72-8.38,25.12-16.75.26-.93.5-2,.7-3.07l0-.15-1.8-.12a64.79,64.79,0,0,1-3.49,6.15c-2.09-4.58-12.14-1.25-12.14-1.25a6.5,6.5,0,0,1-1.95.3,6.06,6.06,0,0,1-1.89-.29h-.05s-10.18-3.19-12.18,1.61a18.27,18.27,0,0,1-2.69-6.24Zm18.87,6.39c11.53-2,9.58,3.8,9.39,5h0a11.7,11.7,0,0,1-2.37,1.8c-4.46,2.41-4.95,2-6.71,2.12a13.23,13.23,0,0,1-6.78-1.84,19.36,19.36,0,0,1-3.23-2.46s-1.81-6.19,9.7-4.64"></path><path class="cls-26" d="M345.55,201.86c0,1.21-.63,2.2-1.4,2.2s-1.39-1-1.39-2.2.62-2.2,1.39-2.2,1.4,1,1.4,2.2"></path><path class="cls-26" d="M362,201.81c0,1.22-.62,2.2-1.39,2.2s-1.4-1-1.4-2.2.62-2.19,1.4-2.19,1.39,1,1.39,2.19"></path><path class="cls-26" d="M365.16,194.27s-4.41-1.74-7.8-.28l.34,1.89s5-.42,7.49.59a3.32,3.32,0,0,0,0-2.2"></path><path class="cls-26" d="M339.49,194.27s4.41-1.74,7.8-.28l-.34,1.89s-5-.42-7.48.59a3.26,3.26,0,0,1,0-2.2"></path><path class="cls-32" d="M353.4,211.06a5.67,5.67,0,0,0,2-.41.54.54,0,0,0-.41-1,3.24,3.24,0,0,1-2.16.21.59.59,0,0,1-.27-.51,81.39,81.39,0,0,1,.33-8.26.54.54,0,0,0-.5-.58.53.53,0,0,0-.58.49,79.23,79.23,0,0,0-.32,8.46,1.64,1.64,0,0,0,.78,1.32,2.26,2.26,0,0,0,1.18.28"></path><path class="cls-18" d="M345.67,215.19c.89,3.11,3.44,6.22,7,6.26s6.06-3.15,6.95-6.26Z"></path><path class="cls-31" d="M332.58,195.48c0,.2,0,.41,0,.63,0,.55,0,1.12.06,1.69,0,.29,0,.58,0,.88s0,.59.06.89v.1l.06.8a67.84,67.84,0,0,0,.86,6.87s0,.11,0,.16c.07.37.15.75.22,1.13l1.86-1.39c-.12-1.2-1.07-9.08-.92-9.83.52-2.61,3.65-5.4,2.92-7.91s-1.79-5.77.17-6.22,10-.53,15-.36,12.14-.81,15,1.45-5.38,6.74,1,8.7c2,.62,1.31,11.13,1,13.59l1.73.87c0-.2.08-.39.11-.6l0-.15a110.2,110.2,0,0,0,1.45-14.07v-.13A11.81,11.81,0,0,0,365.77,181c-6.87-2.64-17.3-4.73-27.17.87a11.86,11.86,0,0,0-6,10.09c0,1.07,0,2.26,0,3.53"></path><path class="cls-36" d="M361.7,233.36a58,58,0,0,0,5.84,3.57l4.28,2.29c2.33,1.22,4.81,2.52,7.27,3.85h0c3.64,2,7.22,4,10.2,5.93a26.2,26.2,0,0,1,6.5,5.41c1.68,2.32,2.77,17.37,3.47,37.17,0,.69.05,1.4.08,2.11V294c0,.72.05,1.46.08,2.2.06,2.23.13,4.5.19,6.82,0,.49,0,1,0,1.47l0,1.11c.07,2.83.13,5.72.19,8.65q.06,3,.11,6c.62,35.3.47,73.6.32,84a194.15,194.15,0,0,1-22.89,4.37h0c-2,.25-4,.48-6,.67l-2,.18c-3.58.3-7.16.51-10.73.61q-8.88.26-17.74-.35c-4.06-.28-8.13-.68-12.19-1.23a198.54,198.54,0,0,1-22.12-4.25c-.13-12.42.16-65.51,1.64-105.22,0-.64.05-1.27.07-1.9.89-22.87,2.19-40.91,4-43.46,2.24-3.06,8.3-6.84,14.71-10.44,2.6-1.47,5.27-2.91,7.76-4.25,4.11-2.22,7.75-4.21,9.85-5.68,0,0,4.07,6.4,8.65,6,4.17-.36,7.42-5.3,8-6.18Z"></path><path class="cls-25" d="M377.81,379.51h0c-15.38-.07-28.5-7.07-36.8-12.93a84.8,84.8,0,0,1-14.48-12.81.74.74,0,0,1,1.14-.95,82.93,82.93,0,0,0,14.22,12.58C350,371.12,362.84,378,377.81,378a.74.74,0,0,1,0,1.48"></path><path class="cls-25" d="M361.79,384.73c-13.34,0-26.65-7.6-27.25-8a.74.74,0,1,1,.74-1.28c.15.09,15.81,9,29.69,7.59a.74.74,0,0,1,.15,1.47,31,31,0,0,1-3.33.17"></path><path class="cls-25" d="M341.67,258.62a.74.74,0,0,1-.14-1.46c18.75-3.56,24.4-15.62,24.45-15.74a.74.74,0,1,1,1.35.61c-.24.52-6,12.88-25.52,16.58h-.14"></path><path class="cls-37" d="M379.14,296.9h-.89a8.79,8.79,0,0,1-8.8-8.79v-11.3h18.49v11.3a8.79,8.79,0,0,1-8.8,8.79"></path><path class="cls-34" d="M282.7,414.68s0-.08,0-.12c-1.42-8.4,2.62-16,4.37-15.77s-1.45,9.18.11,12.4,3.56-3,5.55-6.83c2.07-3.94,2-12.53,1-18.67S303.9,342.3,304,331.5l1.36-4.58,5-16.76L318,283.92s-4.65-19.86-12.49-18.16c0,0-4.15,13.84-8.59,29.44l-2.27,8.05c-3.16,11.31-6.13,22.48-7.51,29.11-3.65,17.5-3.93,53.87-3.93,53.87s-6.44,13.36-6.59,19.31a29,29,0,0,0,1.64,9.14Z"></path><path class="cls-32" d="M294.68,303.25l10.63,23.67,5-16.75L297,295.2l-2.27,8.05"></path><path class="cls-37" d="M294.16,296.19c4.66,8,9.4,15.94,14.12,23.9,1.55-5.2,3.16-10.2,4.67-14.8l0,0q.9-2.76,1.76-5.3a.12.12,0,0,1,0-.09c.19-.6.38-1.18.58-1.76h0c2.25-6.81,4-12.23,4.5-15.39,1.34-8.5-1.81-23.58-6.48-27.86l-.54-.41c-.3-.18-.41-.45-.75-.1a46.38,46.38,0,0,0-7.44,12.2l-.79,2c-2.88,7.42-6.42,17.07-9.68,27.64"></path><path class="cls-25" d="M307.57,324.79c1.53-6.35,3.47-13.41,5.38-19.5a0,0,0,0,0,0,0c.6-1.88,1.19-3.67,1.76-5.31l0-.08c.18-.52.37-1,.54-1.51a.74.74,0,0,0,0-.25h0a.73.73,0,0,0-1.41-.24c-2,5.35-4.28,13.05-6.27,20.61,0,2.09-.06,4.2-.09,6.31"></path><path class="cls-38" d="M393.35,298.11h0a.74.74,0,0,0,0,.25c.18.49.35,1,.53,1.5a.36.36,0,0,1,0,.09c.57,1.64,1.16,3.42,1.76,5.31a0,0,0,0,0,0,0c1.46,4.66,2.94,9.9,4.24,14.95q0-3-.11-6c-1.69-6.1-3.53-12-5.11-16.33a.73.73,0,0,0-1.41.24"></path><path class="cls-34" d="M428.37,314.69h0c-4.11-8.77-32.31-59.79-32.31-59.79-5.32,3.17,3.68,53.35,3.68,53.35l11.19,28.57a11.71,11.71,0,0,0,16.81,6l.32-.18c10.79-6.41.31-27.93.31-27.93"></path><path class="cls-37" d="M396.06,254.9l26.06,37.27s-10.36,22.58-22.26,21.73c0,0-14.66-51.35-3.8-59"></path><path class="cls-39" d="M407.7,285.49c.16-1.52,2.94-1.4,2.82.15a47.38,47.38,0,0,0,0,9c.36,3,1.28,5.8,1.74,8.73.1.65-.92,1-1.26.43C407.77,298.74,407.12,291.27,407.7,285.49Z"></path><path class="cls-40" d="M404.14,322a7.84,7.84,0,0,0,1.3.65c4.71,1.74,7.76-3,7.76-3s7.05,7.35,12.43-5.09c6-13.84.3-18.92-3.5-21.51-5.09-3.5-10.56,2.44-10.69,3.41v.05s-8.93-4.52-13.62.3C388.65,306.27,398.78,318.71,404.14,322Z"></path><path class="cls-41" d="M404.14,322a7.84,7.84,0,0,0,1.3.65c4.71,1.74,7.76-3,7.76-3s7.05,7.35,12.43-5.09c6-13.84.3-18.92-3.5-21.51-5.09-3.5-10.56,2.44-10.69,3.41v.05s6.78-2.78,8.86,1.63-1,18.89-3.35,19.27-5.32-2.16-5.32-2.16S410.2,321.32,404.14,322Z"></path><path class="cls-42" d="M402.17,298.24c2.13-.05,1.28,3.24.72,6.44a18.86,18.86,0,0,0-.07,8.05C397.57,311.38,396.37,298.4,402.17,298.24Z"></path><path class="cls-34" d="M429.73,295.22a65.08,65.08,0,0,0-9.54,1.58c-2.85.66-9.05,4.4-6.41,5.78,2.09,1.08,11.48-1.54,13.34-.69,0,0-4.44.91-8.22,1.49-3.42.53-8.71,2.53-6.65,3.62s6.81.61,8.55.65c2.3.06,5.22,0,5.22,0a71.09,71.09,0,0,0-8,1.92c-2,.6-7.7,1.18-5.88,3.76.91,1.3,8.63.36,12.51.71,0,0-7.15,1.21-9.22,3.15-1.64,1.54.6,1.75,3.48,2a61.16,61.16,0,0,0,7.12,0c2.26,0,6.06-1.6,6.14-3.92s-1.21-3.28-.81-4.74,1.34-3.68.81-5-.37-2.35.16-4-.41-5.63-2.59-6.31"></path><path class="cls-18" d="M355,202.67a6.73,6.73,0,1,1,6.73,6.72,6.74,6.74,0,0,1-6.73-6.72m1,0a5.68,5.68,0,1,0,5.68-5.68,5.69,5.69,0,0,0-5.68,5.68"></path><path class="cls-18" d="M336.65,202.67a6.73,6.73,0,1,1,6.73,6.72,6.74,6.74,0,0,1-6.73-6.72m1.05,0a5.68,5.68,0,1,0,5.68-5.68,5.69,5.69,0,0,0-5.68,5.68"></path><path class="cls-18" d="M373.81,197.58a.53.53,0,0,0-.53-.53A9.51,9.51,0,0,0,367,199.6a.51.51,0,0,0,0,.74.49.49,0,0,0,.37.16.53.53,0,0,0,.37-.15,8.55,8.55,0,0,1,5.54-2.24.54.54,0,0,0,.54-.53"></path><path class="cls-18" d="M338,199.54a18.58,18.58,0,0,0-6-2.45.53.53,0,0,0-.62.52.52.52,0,0,0,.42.51,18.32,18.32,0,0,1,5.6,2.29.47.47,0,0,0,.28.09.52.52,0,0,0,.29-1"></path><path class="cls-18" d="M349.74,201.15a4.24,4.24,0,0,1,2.89-1.7,3.89,3.89,0,0,1,2.76,1.7l.88-.57a4.86,4.86,0,0,0-3.64-2.18,5.25,5.25,0,0,0-3.75,2.14Z"></path><path class="cls-34" d="M176.4,274.92l13.31,48.42.27.89c0,.22,0,.44,0,.69.49,11.73,11.28,48.09,10.34,54.18s-1.07,14.91,1,18.9c2,3.84,4.06,10.17,5.63,6.91s-1.66-12.3.11-12.55,5.87,7.46,4.42,16,3.67,10.79,3.28,6.59,3-9.31,2.83-15.73c-.16-6-6.67-19.55-6.67-19.55s-.29-36.83-4-54.54-18.37-73.37-18.37-73.37c-8.29,8.79-12.2,23.19-12.2,23.19"></path><path class="cls-32" d="M189.72,323.37l.26.86c0,.21,0,.43,0,.66a54.59,54.59,0,0,1,6.87-2,.77.77,0,0,0,.61-.89.75.75,0,0,0-.89-.6,54.33,54.33,0,0,0-6.86,1.94"></path><path class="cls-26" d="M193.59,414.48c-.51-3.29-1-6.6-1.49-9.88-.33-2.2-.64-4.38-.95-6.53-1.18-8.22-2.23-16-3.07-22.46-.32-2.45-.61-4.71-.87-6.73-.82-6.44-1.3-10.45-1.3-10.45l-36.19,1.37-36.31-1.37s-.93,7.92-2.43,19.4c-.27,2.09-.57,4.3-.87,6.6-.81,6-1.73,12.68-2.72,19.49,0,.1,0,.2,0,.3-.31,2.12-.62,4.26-1,6.4a.22.22,0,0,1,0,.08h0c-.19,1.26-.38,2.51-.58,3.77Z"></path><path class="cls-27" d="M121.76,369.3a3.42,3.42,0,1,1-3.42-3.41,3.41,3.41,0,0,1,3.42,3.41"></path><path class="cls-27" d="M130.22,382.52a3.41,3.41,0,1,1-3.41-3.41,3.41,3.41,0,0,1,3.41,3.41"></path><path class="cls-27" d="M146.87,375.7a3.41,3.41,0,1,1-3.41-3.41,3.41,3.41,0,0,1,3.41,3.41"></path><path class="cls-27" d="M120.59,396.55a3.41,3.41,0,1,1-3.41-3.41,3.41,3.41,0,0,1,3.41,3.41"></path><path class="cls-27" d="M141.4,395.09a3.41,3.41,0,1,1-3.41-3.41,3.42,3.42,0,0,1,3.41,3.41"></path><path class="cls-27" d="M113.2,381a3.41,3.41,0,0,1-3.09,3.4c.3-2.3.6-4.51.87-6.6a3.41,3.41,0,0,1,2.22,3.2"></path><path class="cls-27" d="M175.25,414.48a3.41,3.41,0,0,0-6.7,0Z"></path><path class="cls-27" d="M173.7,396.55a3.41,3.41,0,1,1-3.41-3.41,3.41,3.41,0,0,1,3.41,3.41"></path><path class="cls-27" d="M192.1,404.6a3.52,3.52,0,0,1-1.34.27,3.41,3.41,0,0,1,0-6.82,2.55,2.55,0,0,1,.39,0c.31,2.15.62,4.33.95,6.53"></path><path class="cls-27" d="M109.35,407.33a3.4,3.4,0,0,1-3,3.37.22.22,0,0,0,0-.08c.33-2.14.64-4.28,1-6.4a3.43,3.43,0,0,1,2,3.11"></path><path class="cls-27" d="M132,410.75a3.41,3.41,0,1,1-3.41-3.41,3.41,3.41,0,0,1,3.41,3.41"></path><path class="cls-27" d="M150.29,407.34a3.42,3.42,0,1,1-3.42-3.41,3.42,3.42,0,0,1,3.42,3.41"></path><path class="cls-27" d="M158.53,389.34a3.41,3.41,0,1,1-3.41-3.41,3.41,3.41,0,0,1,3.41,3.41"></path><path class="cls-27" d="M188.08,375.61a3,3,0,0,1-.73.09,3.41,3.41,0,0,1-.14-6.82c.26,2,.55,4.28.87,6.73"></path><path class="cls-27" d="M170.29,375.7a3.41,3.41,0,1,1-3.41-3.41,3.41,3.41,0,0,1,3.41,3.41"></path><path class="cls-27" d="M182.78,387.85a3.41,3.41,0,1,1-3.41-3.41,3.4,3.4,0,0,1,3.41,3.41"></path><path class="cls-36" d="M187.52,359.33c-19.09,12.46-54.15,11.49-76.18,0,2.11-13.11,4.88-26.23,4.28-43.68-.06-1.91-.14-3.81-.24-5.69-.09-1.64-.18-3.27-.29-4.88-1.9-29-6.85-52.75-4.42-55.82a23.78,23.78,0,0,1,5-4.28c.86-.58,1.78-1.17,2.75-1.76,2.28-1.4,4.82-2.8,7.38-4.17,6.05-3.24,12.2-6.23,15.28-8.28a19.5,19.5,0,0,0,8.11,2h.45a19.53,19.53,0,0,0,8.11-2c2.86,1.9,8.24,4.55,13.73,7.44a119.21,119.21,0,0,1,11.32,6.57,23,23,0,0,1,4.84,4.16c1.2,1.52.69,8.18-.34,18.06-1,9.72-2.55,22.55-3.47,36.65-.26,3.92-.47,7.93-.61,12-.59,17.45,2.18,30.57,4.28,43.68"></path><path class="cls-25" d="M174.12,345.67h0c-15.38-.07-28.5-7.06-36.8-12.92a83.77,83.77,0,0,1-14.47-12.82.72.72,0,0,1,.09-1,.74.74,0,0,1,1,.09,82.29,82.29,0,0,0,14.23,12.58c8.12,5.73,20.94,12.56,35.91,12.63a.74.74,0,0,1,0,1.48"></path><path class="cls-25" d="M158.1,350.89c-13.34,0-26.65-7.6-27.25-7.95a.73.73,0,0,1-.27-1,.75.75,0,0,1,1-.27c.16.09,15.81,9,29.69,7.59a.74.74,0,0,1,.15,1.48c-1.1.11-2.22.16-3.33.16"></path><path class="cls-25" d="M146.29,268.16a.75.75,0,0,1-.73-.61.74.74,0,0,1,.59-.86c18.74-3.56,24.39-15.62,24.45-15.74a.74.74,0,0,1,1.35.61c-.24.53-6,12.88-25.52,16.58l-.14,0"></path><path class="cls-34" d="M171.5,238.21c-3.72,8.49-12.46,20-24.35,17.94-11.52-2-17.39-10.8-21.33-17.1,6.05-3.24,12.2-6.23,15.28-8.28a19.69,19.69,0,0,0,8.11,2h.45a19.69,19.69,0,0,0,8.11-2c2.86,1.9,8.24,4.55,13.73,7.44"></path><path class="cls-26" d="M149.66,233.11h0"></path><path class="cls-31" d="M168.68,171.76s9,13.94,8,28.46S178,231.5,165,230.77s-36.16,5.21-43.53-6.1,47.19-52.91,47.19-52.91"></path><path class="cls-32" d="M130.53,197.3s-3.59-4.78-6.25-.83,1.1,15.63,7.63,12.78Z"></path><path class="cls-33" d="M130.48,205.64a.56.56,0,0,1-.53-.4c-1-3.61-4.75-5.07-4.78-5.08a.55.55,0,0,1-.32-.71.56.56,0,0,1,.71-.33c.17.07,4.29,1.67,5.45,5.82a.55.55,0,0,1-.38.68l-.15,0"></path><path class="cls-33" d="M126.71,203.82a.54.54,0,0,1-.46-.85,5.11,5.11,0,0,1,2.07-1.67.55.55,0,0,1,.45,1,3.9,3.9,0,0,0-1.59,1.26.55.55,0,0,1-.47.25"></path><path class="cls-32" d="M167.48,197.3s3.59-4.78,6.26-.83-1.11,15.63-7.63,12.78Z"></path><path class="cls-33" d="M167.53,205.64a.56.56,0,0,0,.53-.4c1-3.61,4.75-5.07,4.79-5.08a.56.56,0,0,0-.39-1c-.18.07-4.3,1.67-5.46,5.82a.56.56,0,0,0,.38.68l.15,0"></path><path class="cls-33" d="M171.3,203.82a.54.54,0,0,0,.3-.08.55.55,0,0,0,.16-.77,4.94,4.94,0,0,0-2.07-1.67.55.55,0,0,0-.45,1,4.07,4.07,0,0,1,1.6,1.26.52.52,0,0,0,.46.25"></path><path class="cls-34" d="M157.83,219.15v11.62s-3.46,5.91-8.14,6.31-8.84-5.09-8.84-5.09V220Z"></path><path class="cls-32" d="M157.83,219.15v5.16c-3.14,3.48-8.72,4.72-17,3.5V220Z"></path><path class="cls-34" d="M170.08,189.33A114,114,0,0,1,168.57,204c-.21,1.12-.46,2.18-.73,3.13-2.44,8.56-8.55,23.23-25.67,17.12-7.55-2.7-11.06-11.11-12.62-19.68a82.46,82.46,0,0,1-1.14-15.89,12.11,12.11,0,0,1,6.15-10.31c10.1-5.73,20.76-3.59,27.78-.9a12.09,12.09,0,0,1,7.74,11.86"></path><path class="cls-26" d="M141.47,198c0,1.24-.64,2.24-1.43,2.24s-1.42-1-1.42-2.24.64-2.25,1.42-2.25,1.43,1,1.43,2.25"></path><path class="cls-26" d="M159.09,198c0,1.24-.64,2.24-1.42,2.24s-1.43-1-1.43-2.24.64-2.25,1.43-2.25,1.42,1,1.42,2.25"></path><path class="cls-26" d="M137.22,191.3a23.63,23.63,0,0,1,6.1-.92,1.06,1.06,0,0,1,1.06,1.24v0a1.06,1.06,0,0,1-1.09.87c-1.72-.08-6.23.16-8.36,1a1.61,1.61,0,0,1,.49-1.13,3.58,3.58,0,0,1,1.81-1.1"></path><path class="cls-26" d="M160.27,191.34a23.71,23.71,0,0,0-6.1-.91,1.06,1.06,0,0,0-1.06,1.24v0a1,1,0,0,0,1.09.86c1.72-.08,6.23.17,8.36,1a1.63,1.63,0,0,0-.49-1.14,3.72,3.72,0,0,0-1.81-1.1"></path><path class="cls-32" d="M149.2,208.22a2.34,2.34,0,0,1-1.2-.29,1.68,1.68,0,0,1-.8-1.34,82.46,82.46,0,0,1,.33-8.66.54.54,0,0,1,.59-.5.55.55,0,0,1,.51.59,81.7,81.7,0,0,0-.34,8.45.62.62,0,0,0,.28.52c.51.31,1.71,0,2.21-.21a.55.55,0,0,1,.72.3.56.56,0,0,1-.3.72,5.92,5.92,0,0,1-2,.42"></path><path class="cls-18" d="M142.19,211.7c.42,2.1,1.81,6,6.48,6s6-3.53,6.44-6Z"></path><path class="cls-32" d="M148.6,220.88a5.52,5.52,0,0,1-2.59-.76.55.55,0,0,1-.18-.76.57.57,0,0,1,.76-.18,4.35,4.35,0,0,0,2,.6,4.63,4.63,0,0,0,2.12-.6.55.55,0,0,1,.57.95,5.78,5.78,0,0,1-2.69.75"></path><path class="cls-31" d="M172.3,188.43a1.83,1.83,0,0,1-1.33,1,34.64,34.64,0,0,1-.2,4.08c-.68,8-2.69,9.37-3.15,7.4a90.86,90.86,0,0,1-.13-11.26,27.48,27.48,0,0,1-2.93-.37l-1.84-7.74-.65,7.64c-2.78,1-9.25-.58-9.25-.58L150.65,181l-1.34,7.34c-4.16,2-9.36.68-9.36.68l-1.2-7.92L136,189s-8.87,3.19-9,0c-.06-1.85,1.3-7.07,2.44-11.11a16.73,16.73,0,0,1,8.07-10.24c11-5.91,22.65-2.76,26.65-.38,8.47,5.06,8.12,21.15,8.12,21.15"></path><path class="cls-31" d="M132.16,172.35s-7.56,8.69-10,24.22-5.74,27,3.62,32.12c10.12,5.54,12.07-3.9,11.93-7s-11.59-13.47-5.84-37.28c1.85-7.68.25-12.06.25-12.06"></path><path class="cls-18" d="M170.21,209.51a1.3,1.3,0,1,1-1.29-1.29,1.29,1.29,0,0,1,1.29,1.29"></path><path class="cls-34" d="M115.09,305.08c-1.9-29-6.85-52.75-4.42-55.82a23.78,23.78,0,0,1,5-4.28c2.23,10.45,7.85,41.87-.6,60.1"></path><path class="cls-34" d="M187.32,267c-1,9.72-2.55,22.55-3.47,36.65-7.49-18.19-3.25-48.31-1-58.87a23,23,0,0,1,4.84,4.16c1.2,1.52.7,8.18-.34,18.06"></path><path class="cls-34" d="M119.24,280.17l-8.43,27.05-9.22,25.72a9.05,9.05,0,0,1-12.5,5.83l-.26-.12c-8.78-4.14-3.94-21.35-3.94-21.35l1.66-.12c.67-1.89,2.49-6.7,4.81-12.73.28-.74.57-1.51.87-2.28.49-1.28,1-2.61,1.53-4L96,292.31c5.69-14.74,10.4-30.75,10.4-30.75l3.92-11.65Z"></path><path class="cls-32" d="M95.58,322.81h-.1a.69.69,0,0,1-.69-.58c-1.28-8.16-2.57-14.18-3.43-17.79l.87-2.28c.8,3.18,2.37,10,3.93,19.85a.69.69,0,0,1-.58.79"></path><path class="cls-34" d="M94.33,323.21s-1.21-19.6-5.39-23.76-8-5.76-11.92-5.62-7.61.63-7.37,2.24c0,0-9-1.36-13,1s11.91,4.37,16.64,4.5,7.23,2.76,7.42,5.58,2.92,21.5,2.92,21.5Z"></path><path class="cls-27" d="M99.1,297.34l-59.7.4a4.07,4.07,0,0,1-4.1-4v0a4.08,4.08,0,0,1,4-4.1l59.7-.4a4.08,4.08,0,0,1,4.1,4v0a4.07,4.07,0,0,1-4,4.09"></path><path class="cls-26" d="M35.34,297.77,22.27,250.1a4.23,4.23,0,0,1,4.05-5.34l28.06-.19a4.22,4.22,0,0,1,4.08,3.06l14.38,49.89Z"></path><path class="cls-27" d="M58.46,247.63l14.26,49.48,3.21,0L61.67,247.61a4.23,4.23,0,0,0-4.09-3.06l-3.2,0a4.22,4.22,0,0,1,4.08,3.06"></path><path class="cls-43" d="M51.42,273.26c.75,3.15-1.19,5.72-4.34,5.74A7.61,7.61,0,0,1,40,273.34a4.39,4.39,0,0,1,4.34-5.73,7.61,7.61,0,0,1,7.06,5.65"></path><path class="cls-21" d="M443.77,421.71v.69a7.23,7.23,0,0,1-7.23,7.23H61.34a7.23,7.23,0,0,1-7.23-7.23v-.69a7.23,7.23,0,0,1,7.23-7.23h375.2a7.23,7.23,0,0,1,7.23,7.23"></path><path class="cls-22" d="M443.77,421.71v.34H54.11v-.34a7.23,7.23,0,0,1,7.23-7.23h375.2a7.23,7.23,0,0,1,7.23,7.23"></path></g></g><rect class="cls-1" width="500" height="500"></rect><polygon class="cls-18" points="149.21 71.42 150.33 69.92 151.17 70.46 150.19 72 149.21 71.42"></polygon></g></svg>